<svg xmlns="http://www.w3.org/2000/svg" viewBox="0 0 218.35 204.41"><defs><style>.cls-1{fill:#cfae0b;}</style></defs><g id="Layer_2" data-name="Layer 2"><g id="Capa_3" data-name="Capa 3"><path class="cls-1" d="M211.45,17l-55.38.14a31.71,31.71,0,0,1,2.67,5.15c4.84.27,10.28.71,13.09,3.23,2.13,1.9,3.36,4.6,3.37,8.49a22.27,22.27,0,0,1-.18,2.72,23.78,23.78,0,0,1-.72,3.4q-.54,2-1.26,4c-.48,1.36-1,2.66-1.44,3.89L137,127.91l3.22,23.41L190.28,43.53a87.48,87.48,0,0,1,7.19-13,21.87,21.87,0,0,1,6-5.94,24.52,24.52,0,0,1,8-2.84Z"/><path class="cls-1" d="M120.11,81.31V81q16.68-6,25-16.67t8.28-25.81q-.06-19.81-12.92-29.18T101.72,0L46.93.16l0,5.43a37.3,37.3,0,0,1,7.2,2.58,9.39,9.39,0,0,1,2.59,2.06H80.9c4.1-.29,9.43-.46,16-.48q12.41,0,19.72,3.6a24,24,0,0,1,10.93,10.59q3.62,7,3.65,17.47,0,10.08-3,17a26.58,26.58,0,0,1-8.1,10.81,29.86,29.86,0,0,1-3.5,2.32l-8.26-22.83a79.47,79.47,0,0,1-2.82-8.59,29.68,29.68,0,0,1-1-7.14,10,10,0,0,1,1.44-5.73,9.25,9.25,0,0,1,4.36-3.32c1.4-.56,5.84-1.06,9.61-1.49a23.31,23.31,0,0,0-5.27-5.22l-53.25.14a14.92,14.92,0,0,1,.31,3,15.22,15.22,0,0,1-.14,1.92c3.46.63,8.59,1.52,10.37,2.68a18.61,18.61,0,0,1,5.36,5.62Q79.74,34.31,83,43.15L95.53,75.92l-2.11,0-12.5,0v0H60.11l.14,47.59a74.77,74.77,0,0,1-.68,12.18,10.69,10.69,0,0,1-3,6.15q-2.31,2.16-9.17,4l0,5.43,46.7-.14,0-5.43a37,37,0,0,1-7.2-2.57,9.54,9.54,0,0,1-3.33-3,14.31,14.31,0,0,1-1.84-5.42,77.08,77.08,0,0,1-.64-11.56L81,85.5l12.17,0q1.72,0,3.18.06h2.89l25.09,65.82,15.91-.05L137,127.89Z"/><path class="cls-1" d="M0,159H6.13l1.25,0a11.32,11.32,0,0,1,1.72.21,10.17,10.17,0,0,1,1.88.55,5.14,5.14,0,0,1,1.71,1.11,5.59,5.59,0,0,1,1.25,1.83,6.61,6.61,0,0,1,.5,2.7,6.36,6.36,0,0,1-.58,2.91,5.53,5.53,0,0,1-1.45,1.85,6,6,0,0,1-1.93,1.06,11.66,11.66,0,0,1-2,.48l6.79,11.77H12.79L6.23,171.9H2.18v11.63H0Zm2.18,10.8H6.79a7.33,7.33,0,0,0,2.79-.45,4.55,4.55,0,0,0,1.66-1.11,3.43,3.43,0,0,0,.81-1.41,5.28,5.28,0,0,0,.21-1.39,5.21,5.21,0,0,0-.21-1.38,3.46,3.46,0,0,0-.81-1.42,4.55,4.55,0,0,0-1.66-1.11,7.33,7.33,0,0,0-2.79-.45H2.18Z"/><path class="cls-1" d="M17.9,159H32.17v2.08H20.07v8.72H31.41v2.08H20.07v9.55H32.7v2.08H17.9Z"/><path class="cls-1" d="M35.8,159h2.8l14.21,21.46h.06V159h2.18v24.51h-2.8L38,162.07H38v21.46H35.8Z"/><path class="cls-1" d="M59.5,159h7.22a14.91,14.91,0,0,1,5.14.78,11.36,11.36,0,0,1,3.51,2,9.72,9.72,0,0,1,2.21,2.68,14.09,14.09,0,0,1,1.19,2.83,14.31,14.31,0,0,1,.48,2.44c.06.72.09,1.24.09,1.54s0,.81-.09,1.54a14.5,14.5,0,0,1-.48,2.44,13.78,13.78,0,0,1-1.19,2.82,9.72,9.72,0,0,1-2.21,2.68,11.16,11.16,0,0,1-3.51,2,14.91,14.91,0,0,1-5.14.78H59.5Zm2.18,22.43h4.48a15,15,0,0,0,4.32-.6A9.82,9.82,0,0,0,74,179a8.74,8.74,0,0,0,2.34-3.17,12.49,12.49,0,0,0,0-9.11A8.62,8.62,0,0,0,74,163.56a9.66,9.66,0,0,0-3.49-1.85,14.69,14.69,0,0,0-4.32-.61H61.68Z"/><path class="cls-1" d="M82.58,159H96.85v2.08H84.75v8.72H96.09v2.08H84.75v9.55H97.38v2.08H82.58Z"/><path class="cls-1" d="M98,181.73l13.65-20.63H98.23V159h16.25v1.87l-13.74,20.56h14.11v2.08H98Z"/><path class="cls-1" d="M122.3,174.39h8.14v1.87H122.3Z"/><path class="cls-1" d="M137,159h2.34l7.52,21.5,7.58-21.5h2.31l-8.87,24.51h-2.18Z"/><path class="cls-1" d="M156.71,171.28a14.56,14.56,0,0,1,.89-5.16,12.37,12.37,0,0,1,2.47-4.07,11.38,11.38,0,0,1,3.81-2.68,12.84,12.84,0,0,1,9.79,0,11.38,11.38,0,0,1,3.81,2.68,12.37,12.37,0,0,1,2.47,4.07,15.43,15.43,0,0,1,0,10.33,12.46,12.46,0,0,1-2.47,4.09,11.05,11.05,0,0,1-3.81,2.66,13.09,13.09,0,0,1-9.79,0,11.05,11.05,0,0,1-3.81-2.66,12.46,12.46,0,0,1-2.47-4.09A14.65,14.65,0,0,1,156.71,171.28Zm2.18,0a12.76,12.76,0,0,0,.69,4.25,10.12,10.12,0,0,0,2,3.43,9,9,0,0,0,3.11,2.28,10.45,10.45,0,0,0,8.21,0A9,9,0,0,0,176,179a10.12,10.12,0,0,0,2-3.43,13.28,13.28,0,0,0,0-8.51,10.12,10.12,0,0,0-2-3.43,9,9,0,0,0-3.11-2.28,10.57,10.57,0,0,0-8.21,0,9,9,0,0,0-3.11,2.28,10.12,10.12,0,0,0-2,3.43A12.77,12.77,0,0,0,158.89,171.28Z"/><path class="cls-1" d="M200.65,174.15a16,16,0,0,1-.43,3.77,8.82,8.82,0,0,1-1.43,3.19,7.24,7.24,0,0,1-2.64,2.21,10.08,10.08,0,0,1-8,0,7.33,7.33,0,0,1-2.64-2.21,9,9,0,0,1-1.43-3.19,16,16,0,0,1-.43-3.77V159h2.18v14.54a18.73,18.73,0,0,0,.23,2.8,8.6,8.6,0,0,0,.91,2.77,5.6,5.6,0,0,0,1.91,2.11,5.89,5.89,0,0,0,8.47-2.11,8.85,8.85,0,0,0,.91-2.77,18.73,18.73,0,0,0,.23-2.8V159h2.17Z"/><path class="cls-1" d="M205.6,179a5.7,5.7,0,0,0,2.22,2.31,6.27,6.27,0,0,0,3.12.77,6,6,0,0,0,2-.35,5.13,5.13,0,0,0,1.67-1,4.53,4.53,0,0,0,1.53-3.5,4,4,0,0,0-.51-2.11,4.14,4.14,0,0,0-1.37-1.36,9.57,9.57,0,0,0-1.93-.92c-.71-.26-1.45-.51-2.21-.76a23.58,23.58,0,0,1-2.21-.87A7.25,7.25,0,0,1,206,170a5.49,5.49,0,0,1-1.37-2,7.28,7.28,0,0,1-.51-2.9,6.57,6.57,0,0,1,.61-2.9,6.11,6.11,0,0,1,1.64-2.11,7.43,7.43,0,0,1,2.39-1.28,9.22,9.22,0,0,1,2.84-.43,8.81,8.81,0,0,1,3.54.71,6.74,6.74,0,0,1,2.82,2.37l-1.88,1.42a5.64,5.64,0,0,0-1.93-1.82,5.39,5.39,0,0,0-2.62-.6,7,7,0,0,0-2,.29,5,5,0,0,0-1.66.87,4.35,4.35,0,0,0-1.14,1.43,4.52,4.52,0,0,0-.43,2.05,4.09,4.09,0,0,0,.89,2.82,6.42,6.42,0,0,0,2.23,1.55,22.85,22.85,0,0,0,2.9,1,13.51,13.51,0,0,1,2.9,1.16,6.31,6.31,0,0,1,2.22,2,6.22,6.22,0,0,1,.89,3.58,6.91,6.91,0,0,1-.59,3,6.55,6.55,0,0,1-1.6,2.16,6.76,6.76,0,0,1-2.32,1.33,8.42,8.42,0,0,1-2.74.45,10.44,10.44,0,0,1-4.25-.85,7.77,7.77,0,0,1-3.33-2.85Z"/><path class="cls-1" d="M122.22,193.09c0-.17,0-.38,0-.62l0-.74c0-.25,0-.49,0-.7s0-.39,0-.51h1.13q0,.51,0,1a3,3,0,0,0,0,.61h.06a3.07,3.07,0,0,1,1.13-1.29,3.12,3.12,0,0,1,1.84-.55,2.88,2.88,0,0,1,1.59.47,2.63,2.63,0,0,1,1,1.51,3,3,0,0,1,1.24-1.5,3.36,3.36,0,0,1,1.72-.48,3.62,3.62,0,0,1,1.66.34,2.64,2.64,0,0,1,1,.88,3.22,3.22,0,0,1,.51,1.26,7.77,7.77,0,0,1,.14,1.46v5.44h-1.13v-5.38a6.38,6.38,0,0,0-.09-1.08,3.37,3.37,0,0,0-.33-.94,1.82,1.82,0,0,0-.66-.66,2.15,2.15,0,0,0-1.11-.25,2.45,2.45,0,0,0-1.3.31,2.3,2.3,0,0,0-.8.78,3.42,3.42,0,0,0-.41,1,5,5,0,0,0-.13,1.05v5.14h-1.13v-5.5a4.06,4.06,0,0,0-.44-2,1.47,1.47,0,0,0-1.37-.77,3.09,3.09,0,0,0-1.17.23,2.51,2.51,0,0,0-1,.69,3.3,3.3,0,0,0-.65,1.17,5.43,5.43,0,0,0-.23,1.65v4.57h-1.13Z"/><path class="cls-1" d="M144.1,195.82c0,.45,0,.86,0,1.21s0,.69,0,1,0,.59.05.85a6.82,6.82,0,0,0,.08.79h-1.06a9.5,9.5,0,0,1-.11-1.48h0a3.29,3.29,0,0,1-1.21,1.31,3.77,3.77,0,0,1-1.84.41,4.13,4.13,0,0,1-1.11-.15,3,3,0,0,1-1-.47,2.53,2.53,0,0,1-.71-.84,2.68,2.68,0,0,1-.27-1.25,2.51,2.51,0,0,1,.51-1.66,3.09,3.09,0,0,1,1.25-.92,5.56,5.56,0,0,1,1.58-.4,14.19,14.19,0,0,1,1.48-.09h1.32v-.55a2,2,0,0,0-.69-1.7,2.85,2.85,0,0,0-1.76-.52,3.87,3.87,0,0,0-2.66,1l-.65-.81a4,4,0,0,1,1.54-1,5.29,5.29,0,0,1,1.77-.33,3.84,3.84,0,0,1,2.53.78,3.12,3.12,0,0,1,.94,2.53Zm-2.26-.75a10.45,10.45,0,0,0-1.39.1,4.8,4.8,0,0,0-1.2.34,2.27,2.27,0,0,0-.86.63,1.55,1.55,0,0,0-.32,1,1.47,1.47,0,0,0,.18.74,1.61,1.61,0,0,0,.46.54,2.06,2.06,0,0,0,.63.31,2.15,2.15,0,0,0,.71.11,3.58,3.58,0,0,0,1.49-.27,2.51,2.51,0,0,0,1.41-1.74,4.78,4.78,0,0,0,.13-1.13v-.62Z"/><path class="cls-1" d="M154.92,199.07a6.87,6.87,0,0,1-.47,2.75,4.36,4.36,0,0,1-1.18,1.62,3.87,3.87,0,0,1-1.52.78,6.31,6.31,0,0,1-1.47.19,6.14,6.14,0,0,1-1.29-.13,6,6,0,0,1-1.2-.37,4.92,4.92,0,0,1-1-.61,3.62,3.62,0,0,1-.8-.81l.88-.87a3.64,3.64,0,0,0,1.51,1.31,4.48,4.48,0,0,0,1.92.41,3.89,3.89,0,0,0,1.46-.23,2.76,2.76,0,0,0,1-.63,3,3,0,0,0,.61-.85,4.88,4.88,0,0,0,.32-.93,4.75,4.75,0,0,0,.12-.88c0-.27,0-.5,0-.67v-1.27h0a3.56,3.56,0,0,1-1.33,1.31,3.88,3.88,0,0,1-2,.47,4.6,4.6,0,0,1-1.81-.36,4.74,4.74,0,0,1-1.48-1,5,5,0,0,1-1-1.5,4.58,4.58,0,0,1-.36-1.82,4.65,4.65,0,0,1,.36-1.82,4.76,4.76,0,0,1,2.48-2.49,4.45,4.45,0,0,1,1.81-.38,3.89,3.89,0,0,1,2,.48,3.61,3.61,0,0,1,1.33,1.3h0v-1.54h1.13Zm-1.09-4.1a3.69,3.69,0,0,0-.28-1.41,3.58,3.58,0,0,0-.73-1.15,3.46,3.46,0,0,0-1.1-.77,3.26,3.26,0,0,0-2.69,0,3.42,3.42,0,0,0-1.09.77,3.61,3.61,0,0,0-.74,1.15,3.74,3.74,0,0,0,.74,4,3.42,3.42,0,0,0,1.09.77,3.26,3.26,0,0,0,2.69,0,3.46,3.46,0,0,0,1.1-.77,3.81,3.81,0,0,0,1-2.57Z"/><path class="cls-1" d="M163.51,195.82c0,.45,0,.86,0,1.21s0,.69,0,1,0,.59,0,.85.05.53.08.79h-1.05a8.37,8.37,0,0,1-.12-1.48h0a3.38,3.38,0,0,1-1.22,1.31,3.74,3.74,0,0,1-1.84.41,4.24,4.24,0,0,1-1.11-.15,3.07,3.07,0,0,1-1-.47,2.65,2.65,0,0,1-.71-.84,2.68,2.68,0,0,1-.27-1.25,2.51,2.51,0,0,1,.51-1.66,3.16,3.16,0,0,1,1.25-.92,5.63,5.63,0,0,1,1.59-.4,14,14,0,0,1,1.48-.09h1.32v-.55a2,2,0,0,0-.7-1.7,2.84,2.84,0,0,0-1.75-.52,3.83,3.83,0,0,0-2.66,1l-.66-.81a4,4,0,0,1,1.54-1,5.3,5.3,0,0,1,1.78-.33,3.83,3.83,0,0,1,2.52.78,3.12,3.12,0,0,1,.94,2.53Zm-2.26-.75a10.18,10.18,0,0,0-1.38.1,4.76,4.76,0,0,0-1.21.34,2.35,2.35,0,0,0-.86.63,1.55,1.55,0,0,0-.32,1,1.47,1.47,0,0,0,.18.74,1.61,1.61,0,0,0,.46.54,2.06,2.06,0,0,0,.63.31,2.19,2.19,0,0,0,.71.11,3.58,3.58,0,0,0,1.49-.27,2.55,2.55,0,0,0,.93-.73,2.31,2.31,0,0,0,.48-1,4.79,4.79,0,0,0,.14-1.13v-.62Z"/><path class="cls-1" d="M164.59,199l5.22-7.36h-5v-1.07h6.52v.71l-5.2,7.37h5.43v1.06h-7Z"/><path class="cls-1" d="M172.58,186.9a.88.88,0,0,1,.24-.63.8.8,0,0,1,.61-.26.76.76,0,0,1,.6.26.92.92,0,0,1,0,1.26.79.79,0,0,1-.6.26.83.83,0,0,1-.61-.26A.88.88,0,0,1,172.58,186.9Zm.28,3.62H174v9.14h-1.13Z"/><path class="cls-1" d="M176.25,193.09c0-.17,0-.38,0-.62s0-.49,0-.74,0-.49,0-.7,0-.39,0-.51h1.13l0,1a3,3,0,0,0,.05.61h0a3.21,3.21,0,0,1,1.13-1.29,3.15,3.15,0,0,1,1.85-.55,3.62,3.62,0,0,1,1.66.34,2.71,2.71,0,0,1,1,.88,3.55,3.55,0,0,1,.51,1.26,7.77,7.77,0,0,1,.14,1.46v5.44h-1.13v-5.38a5.49,5.49,0,0,0-.1-1.08,2.83,2.83,0,0,0-.33-.94,1.68,1.68,0,0,0-.66-.66,2.11,2.11,0,0,0-1.1-.25,3.14,3.14,0,0,0-1.18.23,2.51,2.51,0,0,0-1,.69,3.45,3.45,0,0,0-.64,1.17,5.12,5.12,0,0,0-.24,1.65v4.57h-1.13Z"/><path class="cls-1" d="M193.48,197.94a3.91,3.91,0,0,1-1.63,1.51,5,5,0,0,1-2.14.45,4.6,4.6,0,0,1-1.81-.35,4.23,4.23,0,0,1-1.39-1,4.49,4.49,0,0,1-.9-1.53,5.74,5.74,0,0,1-.31-2,5.57,5.57,0,0,1,.32-1.9,4.69,4.69,0,0,1,.91-1.51,4.14,4.14,0,0,1,1.37-1,4.19,4.19,0,0,1,1.75-.37,4.11,4.11,0,0,1,1.77.37,3.88,3.88,0,0,1,1.28,1,4.14,4.14,0,0,1,.78,1.37,4.74,4.74,0,0,1,.26,1.57v.83h-7.31a4.51,4.51,0,0,0,.14,1,3.64,3.64,0,0,0,.52,1.14,3.42,3.42,0,0,0,1,.95,3,3,0,0,0,1.63.39,3.5,3.5,0,0,0,1.68-.43,3.09,3.09,0,0,0,1.24-1.19Zm-.87-3.62a2.78,2.78,0,0,0-.23-1.15,3.2,3.2,0,0,0-.64-.94,3,3,0,0,0-1-.64,3,3,0,0,0-1.18-.24,2.73,2.73,0,0,0-1.54.4,3.27,3.27,0,0,0-1,.91,3.51,3.51,0,0,0-.51,1,2.72,2.72,0,0,0-.15.66Z"/></g></g></svg>